<svg xmlns="http://www.w3.org/2000/svg" viewBox="0 0 64 64"><path fill="#4D4D4D" d="M60.784 56.379l-19-24a1 1 0 0 0-1.492-.086L28 44.586l-6.293-6.293a1.04 1.04 0 0 0-.721-.293c-.27.004-.527.117-.713.313l-17 18A1.001 1.001 0 0 0 4 58h56a1 1 0 0 0 .784-1.621z"/><path fill="#E6E6E6" d="M22.99 43h3.424l-4.707-4.707a1.04 1.04 0 00-.721-.293c-.27.004-.527.117-.713.313L13.958 45h7.052a.99.99 0 00.99-.99v-.02a.99.99 0 01.99-.99zM41.99 38h4.244l-4.45-5.621a1 1 0 00-1.492-.086L32.586 40h7.424a.99.99 0 00.99-.99v-.02a.99.99 0 01.99-.99z"/><path fill="#3EBBDD" d="M54 22h-3a1 1 0 010-2h2v-1a1 1 0 011-1h3a1 1 0 010 2h-2v1a1 1 0 01-1 1zM14 32h-3a1 1 0 01-1-1v-1H8a1 1 0 010-2h3a1 1 0 011 1v1h2a1 1 0 010 2zM56 33h-3a1 1 0 01-1-1v-1h-2a1 1 0 010-2h3a1 1 0 011 1v1h2a1 1 0 010 2z"/><path fill="#FBB03B" d="M28 6c-3.86 0-7 3.14-7 7s3.14 7 7 7 7-3.14 7-7-3.14-7-7-7z"/><path fill="#E6E6E6" d="M27 38h2v2h-2zM27 34h2v2h-2zM27 30h2v2h-2zM31.8 26.4l-3-4c-.377-.504-1.223-.504-1.6 0l-3 4A.999.999 0 0025 28h6a1.001 1.001 0 00.8-1.6zM38 26h2v2h-2zM46 10h2v2h-2zM8 38h2v2H8zM14 18h2v2h-2z"/><path fill="#3E3E3E" d="M51.346 44.458C43.8 50.954 33.221 55 21.5 55a48.885 48.885 0 0 1-14.834-2.279l-3.393 3.592A1.001 1.001 0 0 0 4 58h56a1 1 0 0 0 .784-1.62l-9.438-11.922z"/></svg>